<svg width="221" height="66" viewBox="0 0 221 66" fill="none" xmlns="http://www.w3.org/2000/svg">
<path d="M75.1387 63V0.80802H93.7786V6.8152H81.6759V36.056H90.775V42.0632H81.6759V56.9928H93.7786V63H75.1387ZM97.7416 63V0.80802H104.279V56.9928H115.498V63H97.7416ZM119.568 63V0.80802H126.105V63H119.568ZM130.956 63V0.80802H149.596V6.8152H137.493V36.056H146.592V42.0632H137.493V63H130.956ZM152.696 55.5794V8.22866C152.696 4.78336 155.699 0.80802 160.558 0.80802H163.562C168.42 0.80802 171.336 4.78336 171.336 8.22866V55.5794C171.336 59.0247 168.42 63 163.562 63H160.558C155.699 63 152.696 59.0247 152.696 55.5794ZM160.558 56.9928H163.562C164.092 56.9928 164.798 56.3744 164.798 55.5794V8.22866C164.798 7.34524 164.092 6.8152 163.562 6.8152H160.558C160.028 6.8152 159.233 7.34524 159.233 8.22866V55.5794C159.233 56.3744 160.028 56.9928 160.558 56.9928ZM176.248 55.5794V8.22866C176.248 4.78336 179.251 0.80802 184.11 0.80802H187.114C191.972 0.80802 194.888 4.78336 194.888 8.22866V55.5794C194.888 59.0247 191.972 63 187.114 63H184.11C179.251 63 176.248 59.0247 176.248 55.5794ZM184.11 56.9928H187.114C187.644 56.9928 188.35 56.3744 188.35 55.5794V8.22866C188.35 7.34524 187.644 6.8152 187.114 6.8152H184.11C183.58 6.8152 182.785 7.34524 182.785 8.22866V55.5794C182.785 56.3744 183.58 56.9928 184.11 56.9928ZM204.083 63V6.8152H197.988V0.80802H216.628V6.8152H210.532V63H204.083Z" fill="white"/>
<path d="M23.3991 63.7193C36.3986 42.9201 37.6986 35.1204 27.299 40.3202C14.2995 50.7198 15.5994 45.52 31.1988 24.7207L0 16.921C62.3977 14.3211 77.9971 19.5209 46.7982 32.5205L31.1988 63.7193M15.5994 55.9196L7.79971 63.7193L0 55.9196L7.79971 48.1199M38.9985 9.12133C49.3981 19.5209 51.9981 16.921 46.7982 1.32162L38.9985 9.12133Z" fill="#F5A34F"/>
</svg>
